# xmcd CD database file
#
# Track frame offsets:
#	150
#	12975
#	33982
#	51127
#	72962
#	89472
#	105645
#	131795
#	154770
#	160860
#	175675
#
# Disc length: 2618 seconds
#
# Revision: 1
# Processed by: cddbd v1.5.2PL0 Copyright (c) Steve Scherf et al.
# Submitted via: CDex 1.70beta2
#
DISCID=890a380b
DTITLE=Karl Seglem - Rit
DYEAR=1994
DGENRE=Jazz
TTITLE0=Riss
TTITLE1=Med Jesus vil eg fara
TTITLE2=Ritual
TTITLE3=So ro rela
TTITLE4=Rune
TTITLE5=Siri dale-vise
TTITLE6=Norsk Salme
TTITLE7=Rav
TTITLE8=Gjogra sat uti a Jotulaberg
TTITLE9=Rit
TTITLE10=Sullan Lullan
EXTD=YEAR: 1994
EXTT0=
EXTT1=
EXTT2=
EXTT3=
EXTT4=
EXTT5=
EXTT6=
EXTT7=
EXTT8=
EXTT9=
EXTT10=
PLAYORDER=
